#Comment line ignore any data following # character 
#Hierarchical Translation and Rotation (.htr) file 
[Header]	
#Header keywords are followed by a single value 
FileType HTR		#Single word string
DataType HTRS		#Translation followed by rotation and scale data
FileVersion 1		#integer
NumSegments 64		#integer
NumFrames 3		#integer
DataFrameRate 30		#integer, data frame rate in this file
EulerRotationOrder ZYX
CalibrationUnits mm
RotationUnits Degrees
GlobalAxisofGravity Y
BoneLengthAxis Y
ScaleFactor 1.00
[SegmentNames&Hierarchy]
#CHILD	PARENT
Pinger_Root GLOBAL
Pelvis Pinger_Root
L_Hip Pelvis
R_Hip Pelvis
Rear_Leg01 Pelvis
Spine1 Pelvis
L_Leg01 L_Hip
L_Leg02 L_Leg01
L_Leg03 L_Leg02
L_Foot L_Leg03
L_Toe1_01 L_Foot
L_Toe2_01 L_Foot
L_Toe3_01 L_Foot
planeAlignerLeft L_Foot
L_Toe1_02 L_Toe1_01
L_Toe1_03 L_Toe1_02
L_Toe2_02 L_Toe2_01
L_Toe2_03 L_Toe2_02
L_Toe3_02 L_Toe3_01
L_Toe3_03 L_Toe3_02
planeLockWeightLeft planeAlignerLeft
R_Leg01 R_Hip
R_Leg02 R_Leg01
R_Leg03 R_Leg02
R_Foot R_Leg03
planeAlignerRight R_Foot
R_Toe1_01 R_Foot
R_Toe2_01 R_Foot
R_Toe3_01 R_Foot
planeLockWeightRight planeAlignerRight
R_Toe1_02 R_Toe1_01
R_Toe1_03 R_Toe1_02
R_Toe2_02 R_Toe2_01
R_Toe2_03 R_Toe2_02
R_Toe3_02 R_Toe3_01
R_Toe3_03 R_Toe3_02
Rear_Leg02 Rear_Leg01
Rear_Leg03 Rear_Leg02
Rear_Leg04 Rear_Leg03
Rear_Foot Rear_Leg04
planeAlignerCenter Rear_Foot
Rear_Toe1_01 Rear_Foot
Rear_Toe2_01 Rear_Foot
Rear_Toe3_01 Rear_Foot
planeLockWeightCenter planeAlignerCenter
Rear_Toe1_02 Rear_Toe1_01
Rear_Toe1_03 Rear_Toe1_02
Rear_Toe2_02 Rear_Toe2_01
Rear_Toe2_03 Rear_Toe2_02
Rear_Toe3_02 Rear_Toe3_01
Rear_Toe3_03 Rear_Toe3_02
Back_Bone Spine1
Head Spine1
Motor_Bone Back_Bone
Ping_Mechanism Back_Bone
BN_LookIK Head
bottomMouth Head
L_Mouth01 Head
L_mouthFront Head
mouthGun Head
R_Mouth01 Head
R_mouthFront Head
TopMouth Head
weapon_bone Head
[BasePosition]
#SegmentName Tx, Ty, Tz, Rx, Ry, Rz, BoneLength
Pinger_Root 0.000000 0.000000 0.000000 -90.000000 0.000000 0.000000 10.000000 
Pelvis 0.000000 0.000000 0.000000 0.000000 0.000000 0.000000 10.000000 
L_Hip 0.000000 0.000000 0.000000 0.000000 0.000000 0.000000 10.000000 
R_Hip 0.000000 0.000000 0.000000 0.000000 0.000000 0.000000 10.000000 
Rear_Leg01 0.000000 0.000000 0.000000 0.000000 0.000000 0.000000 10.000000 
Spine1 0.000000 0.000000 0.000000 0.000000 0.000000 0.000000 10.000000 
L_Leg01 0.000000 0.000000 0.000000 0.000000 0.000000 0.000000 10.000000 
L_Leg02 0.000000 0.000000 0.000000 0.000000 0.000000 0.000000 10.000000 
L_Leg03 0.000000 0.000000 0.000000 0.000000 0.000000 0.000000 10.000000 
L_Foot 0.000000 0.000000 0.000000 0.000000 0.000000 0.000000 10.000000 
L_Toe1_01 0.000000 0.000000 0.000000 0.000000 0.000000 0.000000 10.000000 
L_Toe2_01 0.000000 0.000000 0.000000 0.000000 0.000000 0.000000 10.000000 
L_Toe3_01 0.000000 0.000000 0.000000 0.000000 0.000000 0.000000 10.000000 
planeAlignerLeft 0.000000 0.000000 0.000000 0.000000 0.000000 0.000000 10.000000 
L_Toe1_02 0.000000 0.000000 0.000000 0.000000 0.000000 0.000000 10.000000 
L_Toe1_03 0.000000 0.000000 0.000000 0.000000 0.000000 0.000000 10.000000 
L_Toe2_02 0.000000 0.000000 0.000000 0.000000 0.000000 0.000000 10.000000 
L_Toe2_03 0.000000 0.000000 0.000000 0.000000 0.000000 0.000000 10.000000 
L_Toe3_02 0.000000 0.000000 0.000000 0.000000 0.000000 0.000000 10.000000 
L_Toe3_03 0.000000 0.000000 0.000000 0.000000 0.000000 0.000000 10.000000 
planeLockWeightLeft 0.000000 0.000000 0.000000 0.000000 0.000000 0.000000 10.000000 
R_Leg01 0.000000 0.000000 0.000000 0.000000 0.000000 0.000000 10.000000 
R_Leg02 0.000000 0.000000 0.000000 0.000000 0.000000 0.000000 10.000000 
R_Leg03 0.000000 0.000000 0.000000 0.000000 0.000000 0.000000 10.000000 
R_Foot 0.000000 0.000000 0.000000 0.000000 0.000000 0.000000 10.000000 
planeAlignerRight 0.000000 0.000000 0.000000 0.000000 0.000000 0.000000 10.000000 
R_Toe1_01 0.000000 0.000000 0.000000 0.000000 0.000000 0.000000 10.000000 
R_Toe2_01 0.000000 0.000000 0.000000 0.000000 0.000000 0.000000 10.000000 
R_Toe3_01 0.000000 0.000000 0.000000 0.000000 0.000000 0.000000 10.000000 
planeLockWeightRight 0.000000 0.000000 0.000000 0.000000 0.000000 0.000000 10.000000 
R_Toe1_02 0.000000 0.000000 0.000000 0.000000 0.000000 0.000000 10.000000 
R_Toe1_03 0.000000 0.000000 0.000000 0.000000 0.000000 0.000000 10.000000 
R_Toe2_02 0.000000 0.000000 0.000000 0.000000 0.000000 0.000000 10.000000 
R_Toe2_03 0.000000 0.000000 0.000000 0.000000 0.000000 0.000000 10.000000 
R_Toe3_02 0.000000 0.000000 0.000000 0.000000 0.000000 0.000000 10.000000 
R_Toe3_03 0.000000 0.000000 0.000000 0.000000 0.000000 0.000000 10.000000 
Rear_Leg02 0.000000 0.000000 0.000000 0.000000 0.000000 0.000000 10.000000 
Rear_Leg03 0.000000 0.000000 0.000000 0.000000 0.000000 0.000000 10.000000 
Rear_Leg04 0.000000 0.000000 0.000000 0.000000 0.000000 0.000000 10.000000 
Rear_Foot 0.000000 0.000000 0.000000 0.000000 0.000000 0.000000 10.000000 
planeAlignerCenter 0.000000 0.000000 0.000000 0.000000 0.000000 0.000000 10.000000 
Rear_Toe1_01 0.000000 0.000000 0.000000 0.000000 0.000000 0.000000 10.000000 
Rear_Toe2_01 0.000000 0.000000 0.000000 0.000000 0.000000 0.000000 10.000000 
Rear_Toe3_01 0.000000 0.000000 0.000000 0.000000 0.000000 0.000000 10.000000 
planeLockWeightCenter 0.000000 0.000000 0.000000 0.000000 0.000000 0.000000 10.000000 
Rear_Toe1_02 0.000000 0.000000 0.000000 0.000000 0.000000 0.000000 10.000000 
Rear_Toe1_03 0.000000 0.000000 0.000000 0.000000 0.000000 0.000000 10.000000 
Rear_Toe2_02 0.000000 0.000000 0.000000 0.000000 0.000000 0.000000 10.000000 
Rear_Toe2_03 0.000000 0.000000 0.000000 0.000000 0.000000 0.000000 10.000000 
Rear_Toe3_02 0.000000 0.000000 0.000000 0.000000 0.000000 0.000000 10.000000 
Rear_Toe3_03 0.000000 0.000000 0.000000 0.000000 0.000000 0.000000 10.000000 
Back_Bone 0.000000 0.000000 0.000000 0.000000 0.000000 0.000000 10.000000 
Head 0.000000 0.000000 0.000000 0.000000 0.000000 0.000000 10.000000 
Motor_Bone 0.000000 0.000000 0.000000 0.000000 0.000000 0.000000 10.000000 
Ping_Mechanism 0.000000 0.000000 0.000000 0.000000 0.000000 0.000000 10.000000 
BN_LookIK 0.000000 0.000000 0.000000 0.000000 0.000000 0.000000 10.000000 
bottomMouth 0.000000 0.000000 0.000000 0.000000 0.000000 0.000000 10.000000 
L_Mouth01 0.000000 0.000000 0.000000 0.000000 0.000000 0.000000 10.000000 
L_mouthFront 0.000000 0.000000 0.000000 0.000000 0.000000 0.000000 10.000000 
mouthGun 0.000000 0.000000 0.000000 0.000000 0.000000 0.000000 10.000000 
R_Mouth01 0.000000 0.000000 0.000000 0.000000 0.000000 0.000000 10.000000 
R_mouthFront 0.000000 0.000000 0.000000 0.000000 0.000000 0.000000 10.000000 
TopMouth 0.000000 0.000000 0.000000 0.000000 0.000000 0.000000 10.000000 
weapon_bone 0.000000 0.000000 0.000000 0.000000 0.000000 0.000000 10.000000 
#Beginning of Data. Separated by tabs
#Fr	Tx	Ty	Tz	Rx	Ry	Rz	SF
[Pinger_Root]
3 0.000000 0.000000 0.000000 -0.000075 -0.000000 -0.000020 0.000000
4 0.000000 0.000000 0.000000 -0.000075 -0.000000 -0.000020 0.000000
5 0.000000 0.000000 0.000000 -0.000075 -0.000000 -0.000020 0.000000
[Pelvis]
3 31.121292 920.591614 4202.533203 -99.109947 -81.779060 88.894691 4302.294922
4 -10.624759 126.203178 4421.161133 -104.747940 -69.217720 89.106438 4422.974609
5 -51.981960 -39.659397 4390.018555 -103.580292 -67.929199 86.688690 4390.505371
[L_Hip]
3 5.766392 125.831482 872.656799 160.158691 -45.484905 122.312202 881.701050
4 5.766392 125.831482 872.656799 160.158691 -45.484905 122.312202 881.701050
5 5.766392 125.831482 872.656799 160.158691 -45.484905 122.312202 881.701050
[R_Hip]
3 5.765438 125.836372 -872.654907 38.087841 49.812687 125.703735 881.699829
4 5.765438 125.836372 -872.654907 38.087841 49.812698 125.703735 881.699829
5 5.765438 125.836372 -872.654907 38.087841 49.812687 125.703735 881.699829
[Rear_Leg01]
3 -192.298416 -925.602966 -0.001907 174.144012 7.239784 -147.444809 945.367432
4 -192.298416 -925.602966 -0.001907 174.721573 7.774565 -155.483047 945.367432
5 -192.298416 -925.602966 -0.001907 175.092010 8.736351 -158.822647 945.367432
[Spine1]
3 290.604584 5.007505 0.000477 -0.230976 4.201902 14.797282 290.647736
4 290.604584 5.007505 0.000477 8.947426 -0.223616 13.988661 290.647736
5 290.604584 5.007505 0.000477 10.294199 -1.176397 10.119290 290.647736
[L_Leg01]
3 761.932007 -0.002384 -0.069261 18.339729 -20.945013 12.358353 761.932068
4 761.932007 -0.002384 -0.069261 9.942835 -19.986887 25.289776 761.932068
5 761.932007 -0.002384 -0.069261 7.379635 -20.004782 29.460646 761.932068
[L_Leg02]
3 1441.140503 -0.000954 -0.000715 3.327979 -0.571738 -144.905899 1441.140503
4 1441.140503 -0.000954 -0.000715 -0.086478 0.106834 -123.107521 1441.140503
5 1441.140503 -0.000954 -0.000715 -0.387268 0.216064 -122.533211 1441.140503
[L_Leg03]
3 1686.963989 -0.000715 -0.000954 -0.004565 0.000865 111.457245 1686.963989
4 1686.963989 -0.000715 -0.000954 0.029437 -0.010085 101.847290 1686.963989
5 1686.963989 -0.000715 -0.000954 0.036599 -0.010109 99.638313 1686.963989
[L_Foot]
3 3041.570068 -30.715107 11.297464 -1.143113 10.780538 59.686497 3041.746094
4 3041.570068 -30.715107 11.297464 -2.662960 9.542478 46.144043 3041.746094
5 3041.570068 -30.715107 11.297464 -2.627581 10.179645 44.619892 3041.746094
[L_Toe1_01]
3 -188.216690 -224.732346 -21.137953 92.609222 -14.201042 -172.357925 293.899567
4 -188.216690 -224.732346 -21.137953 94.621361 -20.846258 178.389069 293.899567
5 -188.216690 -224.732346 -21.137953 94.621361 -20.846258 178.389069 293.899567
[L_Toe2_01]
3 200.746536 -219.926590 148.838394 -96.889610 -25.156338 -42.903839 332.896027
4 200.746536 -219.926590 148.838394 -103.114754 -23.047394 -32.408371 332.896027
5 200.746536 -219.926590 148.838394 -103.114754 -23.047394 -32.408371 332.896027
[L_Toe3_01]
3 188.832520 -219.859131 -191.078659 -103.360260 19.610563 -61.713634 347.140900
4 188.832520 -219.859131 -191.078659 -105.774963 27.009623 -55.716061 347.140900
5 188.832520 -219.859131 -191.078659 -105.774963 27.009623 -55.716061 347.140900
[planeAlignerLeft]
3 0.812531 -811.448792 -0.314951 0.000000 -90.000000 -90.001900 811.449280
4 0.812531 -811.448792 -0.314951 0.000000 -90.000000 -90.001900 811.449280
5 0.812531 -811.448792 -0.314951 0.000000 -90.000000 -90.001900 811.449280
[L_Toe1_02]
3 413.761139 0.000477 0.000000 0.001399 -23.991655 0.001399 413.761139
4 413.761139 0.000477 0.000000 0.001661 0.070897 0.001661 413.761139
5 413.761139 0.000477 0.000000 0.001661 0.070897 0.001661 413.761139
[L_Toe1_03]
3 464.317322 0.000358 -0.000089 0.002579 35.861759 0.002579 464.317322
4 464.317322 0.000358 -0.000089 0.001673 -0.448396 -0.003292 464.317322
5 464.317322 0.000358 -0.000089 0.001673 -0.448396 -0.003292 464.317322
[L_Toe2_02]
3 342.235809 -0.000477 0.000238 0.001181 -76.987312 0.001181 342.235809
4 342.235809 -0.000477 0.000238 0.001179 -79.370476 0.001179 342.235809
5 342.235809 -0.000477 0.000238 0.001179 -79.365898 0.001179 342.235809
[L_Toe2_03]
3 420.210846 -0.000715 0.000000 -179.994934 80.329269 -179.991425 420.210846
4 420.210846 -0.000715 0.000000 -179.998642 68.908218 -179.995087 420.210846
5 420.210846 -0.000715 0.000000 -179.998642 68.908218 -179.995087 420.210846
[L_Toe3_02]
3 329.270111 0.000954 0.000000 0.004677 -83.899574 0.004677 329.270111
4 329.270111 0.000954 0.000000 0.004675 -84.760262 0.004675 329.270111
5 329.270111 0.000954 0.000000 0.004675 -84.756897 0.004675 329.270111
[L_Toe3_03]
3 439.137451 -0.001907 0.000954 179.991913 59.528465 179.999161 439.137451
4 439.137451 -0.001907 0.000954 179.993240 43.140900 -179.999146 439.137451
5 439.137451 -0.001907 0.000954 179.993240 43.140900 -179.999146 439.137451
[planeLockWeightLeft]
3 -0.000954 0.000238 -0.000305 -0.011826 -0.004376 0.005620 0.001029
4 -0.000954 0.000238 -0.000305 -0.011826 -0.004376 0.005620 0.001029
5 -0.000954 0.000238 -0.000305 -0.011826 -0.004376 0.005620 0.001029
[R_Leg01]
3 761.455627 -0.001907 -0.000358 120.205513 -33.397705 20.725031 761.455688
4 761.455627 -0.001907 -0.000358 123.246368 -47.267670 17.766403 761.455688
5 761.455627 -0.001907 -0.000358 124.950104 -49.967030 14.681777 761.455688
[R_Leg02]
3 1441.140625 0.000000 -0.000238 -1.290959 -0.057814 -140.438232 1441.140625
4 1441.140625 0.000000 -0.000238 0.982096 -0.247126 -104.131699 1441.140625
5 1441.140625 0.000000 -0.000238 1.157993 -0.326105 -100.685364 1441.140625
[R_Leg03]
3 1686.963989 0.000954 0.001431 0.047293 -0.021096 122.557365 1686.963989
4 1686.963989 0.000954 0.001431 -0.014467 0.005660 106.714928 1686.963989
5 1686.963989 0.000954 0.001431 -0.021515 0.006249 104.435791 1686.963989
[R_Foot]
3 3041.560059 -30.531288 -11.204481 3.748918 -29.038834 59.755653 3041.734131
4 3041.560059 -30.531288 -11.204481 4.601655 -32.563290 39.177864 3041.734131
5 3041.560059 -30.531288 -11.204481 5.020781 -31.934570 36.112774 3041.734131
[planeAlignerRight]
3 -0.635147 -812.270569 -0.364304 0.000000 -89.960434 -90.005180 812.270874
4 -0.635147 -812.270569 -0.364304 0.000000 -89.960434 -90.005180 812.270874
5 -0.635147 -812.270569 -0.364304 0.000000 -89.960434 -90.005180 812.270874
[R_Toe1_01]
3 -188.383347 -224.864899 21.052242 77.393188 0.599707 -173.302231 294.101532
4 -188.383347 -224.864899 21.052242 78.327164 0.810639 -176.062744 294.101532
5 -188.383347 -224.864899 21.052242 78.327164 0.810639 -176.062744 294.101532
[R_Toe2_01]
3 200.637817 -220.002121 -148.787384 -98.824394 36.864029 -51.607861 332.857574
4 200.637817 -220.002121 -148.787384 -104.266167 43.986542 -40.476093 332.857574
5 200.637817 -220.002121 -148.787384 -101.749176 44.311008 -40.587032 332.857574
[R_Toe3_01]
3 188.606735 -220.092957 191.126343 -74.899094 -12.156116 -65.665649 347.192566
4 188.606735 -220.092957 191.126343 -77.777176 -16.659966 -55.221592 347.192566
5 188.606735 -220.092957 191.126343 -77.777176 -16.659966 -55.221592 347.192566
[planeLockWeightRight]
3 -0.000477 0.000000 0.000000 -0.011823 -0.004379 -0.000027 0.000477
4 -0.000477 0.000000 0.000000 -0.011823 -0.004379 -0.000027 0.000477
5 -0.000477 0.000000 0.000000 -0.011823 -0.004379 -0.000027 0.000477
[R_Toe1_02]
3 413.762085 0.000477 -0.000119 0.001384 -25.977402 0.001384 413.762085
4 413.762085 0.000477 -0.000119 0.001534 -9.822607 0.001534 413.762085
5 413.762085 0.000477 -0.000119 0.001534 -9.822416 0.001534 413.762085
[R_Toe1_03]
3 464.317810 0.000000 0.001088 0.003635 52.331898 0.003635 464.317810
4 464.317810 0.000000 0.001088 0.001388 9.999685 -0.003176 464.317810
5 464.317810 0.000000 0.001088 0.001388 9.999494 -0.003176 464.317810
[R_Toe2_02]
3 342.234741 -0.000954 0.000238 -0.002340 -76.306488 -0.002340 342.234741
4 342.234741 -0.000954 0.000238 -0.002332 -79.833969 -0.002332 342.234741
5 342.234741 -0.000954 0.000238 -0.002332 -79.833969 -0.002332 342.234741
[R_Toe2_03]
3 420.210846 0.000715 -0.000268 -179.989685 82.311249 -179.993179 420.210846
4 420.210846 0.000715 -0.000268 -179.995636 64.198975 -179.999222 420.210846
5 420.210846 0.000715 -0.000268 -179.995636 64.198975 -179.999222 420.210846
[R_Toe3_02]
3 329.270355 -0.000477 -0.000954 0.001176 -82.563255 0.001176 329.270355
4 329.270355 -0.000477 -0.000954 0.001175 -84.693298 0.001175 329.270355
5 329.270355 -0.000477 -0.000954 0.001175 -84.691307 0.001175 329.270355
[R_Toe3_03]
3 439.137939 0.000238 0.001431 -179.998672 68.746330 -179.995102 439.137939
4 439.137939 0.000238 0.001431 -179.997650 45.533470 -179.990097 439.137939
5 439.137939 0.000238 0.001431 -179.997650 45.533463 -179.990097 439.137939
[Rear_Leg02]
3 1162.777710 -0.029802 0.005960 0.784864 -2.909077 -105.787880 1162.777710
4 1162.777710 -0.029802 0.005960 0.608963 -2.967438 -81.564789 1162.777710
5 1162.777710 -0.029802 0.005960 0.827932 -2.913064 -85.664917 1162.777710
[Rear_Leg03]
3 607.192505 -0.013351 -0.073195 0.010597 -0.004885 65.858795 607.192505
4 607.192505 -0.013351 -0.073195 0.010635 -0.004800 64.936096 607.192505
5 607.192505 -0.013351 -0.073195 0.010567 -0.004951 66.563065 607.192505
[Rear_Leg04]
3 995.874512 -0.020504 -0.011921 -0.043441 -0.018299 61.377316 995.874573
4 995.874512 -0.020504 -0.011921 -0.040681 -0.014717 59.494308 995.874573
5 995.874512 -0.020504 -0.011921 -0.043646 -0.017804 62.681507 995.874573
[Rear_Foot]
3 3096.176270 -0.067472 -0.041425 -78.546593 87.308769 109.229271 3096.176270
4 3096.176270 -0.067472 -0.041425 -34.912121 84.798317 136.188034 3096.176270
5 3096.176270 -0.067472 -0.041425 -29.460405 83.902237 139.189346 3096.176270
[planeAlignerCenter]
3 0.350077 0.966311 -838.790894 0.000009 0.000003 -179.999985 838.791565
4 0.350077 0.966311 -838.790894 0.000009 0.000003 -179.999985 838.791565
5 0.350077 0.966311 -838.790894 0.000009 0.000003 -179.999985 838.791565
[Rear_Toe1_01]
3 0.653352 83.966492 -371.173737 0.510605 32.340801 95.369041 380.553192
4 0.653352 83.966492 -371.173737 0.662404 22.874760 101.112411 380.553192
5 0.653352 83.966492 -371.173737 0.702068 22.888172 102.290527 380.553192
[Rear_Toe2_01]
3 178.200760 -294.826019 -362.060547 -7.902482 27.681545 -60.763611 499.765686
4 178.200760 -294.826019 -362.060547 -8.886172 20.711744 -54.442337 499.765686
5 178.200760 -294.826019 -362.060547 -8.898461 20.707041 -53.007477 499.765686
[Rear_Toe3_01]
3 -153.359680 -308.780914 -362.060852 3.843151 26.965937 -106.390823 499.952881
4 -153.359680 -308.780914 -362.060852 3.950188 20.138985 -99.474472 499.952881
5 -153.359680 -308.780914 -362.060852 3.942765 20.120150 -98.056793 499.952881
[planeLockWeightCenter]
3 -0.000062 0.000238 0.000000 -0.011814 -0.004373 -0.000015 0.000246
4 -0.000062 0.000238 0.000000 -0.011814 -0.004373 -0.000015 0.000246
5 -0.000062 0.000238 0.000000 -0.011814 -0.004373 -0.000015 0.000246
[Rear_Toe1_02]
3 379.707825 0.194073 0.000477 0.001332 -33.588612 0.001332 379.707855
4 379.707825 0.194073 0.000477 -0.002640 -33.278778 -0.002640 379.707855
5 379.707825 0.194073 0.000477 -0.002640 -33.278103 -0.002640 379.707855
[Rear_Toe1_03]
3 500.129700 0.165701 0.000119 0.007063 70.869087 0.007063 500.129761
4 500.129700 0.165701 0.000119 -0.008816 83.764420 -0.012318 500.129761
5 500.129700 0.165701 0.000119 -0.008822 83.767723 -0.012324 500.129761
[Rear_Toe2_02]
3 340.494507 0.000238 -0.000954 0.001188 -72.016380 0.001188 340.494507
4 340.494507 0.000238 -0.000954 0.001188 -71.877991 0.001188 340.494507
5 340.494507 0.000238 -0.000954 0.001189 -71.739563 0.001189 340.494507
[Rear_Toe2_03]
3 433.103577 0.000000 0.000238 0.008048 73.229568 0.008048 433.103546
4 433.103577 0.000000 0.000238 0.007914 72.943619 0.007914 433.103546
5 433.103577 0.000000 0.000238 0.007784 72.657600 0.007784 433.103546
[Rear_Toe3_02]
3 340.494141 -0.000358 -0.000477 0.001194 -68.670433 0.001194 340.494171
4 340.494141 -0.000358 -0.000477 0.008318 -67.351944 -0.009490 340.494171
5 340.494141 -0.000358 -0.000477 0.008243 -67.159035 -0.009416 340.494171
[Rear_Toe3_03]
3 433.103577 0.001431 -0.000238 0.006162 68.040756 0.006162 433.103546
4 433.103577 0.001431 -0.000238 -0.000985 66.071060 -0.004560 433.103546
5 433.103577 0.001431 -0.000238 -0.000939 65.670357 -0.004516 433.103546
[Back_Bone]
3 1312.175781 -701.934692 0.000954 13.176273 0.696107 -49.302021 1488.125488
4 1312.175781 -701.934692 0.000954 8.157385 0.211105 -62.590240 1488.125488
5 1312.175781 -701.934692 0.000954 2.844088 1.660605 -70.317848 1488.125488
[Head]
3 1406.159424 809.709290 0.001431 5.411294 8.954743 -0.567567 1622.625488
4 1406.159424 809.709290 0.001431 10.374094 11.851725 0.442344 1622.625488
5 1406.159424 809.709290 0.001431 18.589298 -0.860880 23.948261 1622.625488
[Motor_Bone]
3 1158.364380 -417.834747 0.000477 -0.000105 0.000046 -105.985291 1231.419434
4 1158.364380 -417.834747 0.000477 -0.000105 0.000046 -105.985291 1231.419434
5 1158.364380 -417.834747 0.000477 -0.000105 0.000046 -105.985291 1231.419434
[Ping_Mechanism]
3 1233.950684 -462.895172 1.770553 0.000103 -0.000053 82.120995 1317.918579
4 1282.836914 -516.653687 2.748832 0.000103 -0.000053 82.120995 1382.971069
5 1305.350342 -510.577972 2.383823 0.000103 -0.000053 82.120995 1401.654419
[BN_LookIK]
3 193.241119 1380.371704 -0.002861 0.000000 89.965736 -31.038179 1393.832153
4 193.241119 1380.371704 -0.002861 0.000000 89.965736 -31.038179 1393.832153
5 193.241119 1380.371704 -0.002861 0.000000 89.965736 -31.038179 1393.832153
[bottomMouth]
3 -435.092926 615.759399 -0.000954 -0.000022 0.000016 73.527184 753.966492
4 -435.092926 615.759399 -0.000954 -0.000022 0.000016 73.527184 753.966492
5 -435.092926 615.759399 -0.000954 -0.000022 0.000016 73.527184 753.966492
[L_Mouth01]
3 554.440979 7.658243 838.222046 150.204178 23.759130 109.605339 1005.027161
4 554.440979 7.658243 838.222046 150.204178 23.759130 109.605339 1005.027161
5 554.440979 7.658243 838.222046 150.204178 23.759130 109.605339 1005.027161
[L_mouthFront]
3 551.629089 934.514771 339.150421 0.000081 2.804060 79.119301 1136.941284
4 551.629089 934.514771 339.150421 0.000081 2.804060 79.119301 1136.941284
5 551.629089 934.514771 339.150421 0.000081 2.804060 79.119301 1136.941284
[mouthGun]
3 55.332661 1627.420898 0.000000 0.000023 0.000009 -11.038128 1628.361328
4 55.332661 1627.420898 0.000000 0.000023 0.000009 -11.038128 1628.361328
5 55.332661 1627.420898 0.000000 0.000023 0.000009 -11.038128 1628.361328
[R_Mouth01]
3 554.442383 7.659197 -838.223938 29.795891 -23.759109 109.605331 1005.029541
4 554.442383 7.659197 -838.223938 29.795891 -23.759109 109.605331 1005.029541
5 554.442383 7.659197 -838.223938 29.795891 -23.759109 109.605331 1005.029541
[R_mouthFront]
3 551.629089 934.514282 -339.151367 0.000029 -2.803930 79.119133 1136.941162
4 551.629089 934.514282 -339.151367 0.000029 -2.803930 79.119133 1136.941162
5 551.629089 934.514282 -339.151367 0.000029 -2.803930 79.119133 1136.941162
[TopMouth]
3 461.269867 -56.106091 -0.008583 -0.000059 -0.000268 92.025169 464.669525
4 461.269867 -56.106091 -0.008583 -0.000059 -0.000268 92.025169 464.669525
5 461.269867 -56.106091 -0.008583 -0.000059 -0.000268 92.025169 464.669525
[weapon_bone]
3 -987.239868 1448.372803 0.001431 0.000000 89.965736 -31.038221 1752.833740
4 -987.239868 1448.372803 0.001431 0.000000 89.965736 -31.038221 1752.833740
5 -987.239868 1448.372803 0.001431 0.000000 89.965736 -31.038221 1752.833740
